<?xml version="1.0" encoding="utf-8"?>
<!-- Generator: Adobe Illustrator 21.0.0, SVG Export Plug-In . SVG Version: 6.00 Build 0)  -->
<svg version="1.1" id="Слой_1" xmlns="http://www.w3.org/2000/svg" xmlns:xlink="http://www.w3.org/1999/xlink" x="0px" y="0px"
	 viewBox="0 0 50 50" style="enable-background:new 0 0 50 50;" xml:space="preserve">
<style type="text/css">
	.st0{fill:#ECECEC;}
	.st1{fill:#ECECEC;stroke:#C8C8C8;stroke-miterlimit:10;}
	.st2{fill:none;stroke:#C8C8C8;stroke-miterlimit:10;}
	.st3{fill:#C8C8C8;stroke:#C8C8C8;stroke-width:0.1;stroke-miterlimit:10;}
</style>
<circle class="st0" cx="25" cy="25" r="25"/>
<g>
	<circle class="st1" cx="25" cy="25" r="12.5"/>
	<path class="st1" d="M25,36.7V12.8c0-0.1-0.1-0.2-0.3-0.1c-1.2,1-6.4,5.8-6.4,13.1c0,5.5,4.5,9.8,6.1,11.2C24.6,37.2,25,37,25,36.7
		z"/>
	<path class="st2" d="M25,12.5c0,0,6.7,5,6.7,13.3S25,37.5,25,37.5"/>
	<path class="st1" d="M38.2,30.8H11.8c-0.6,0-1-0.4-1-1v-9.7c0-0.6,0.4-1,1-1h26.3c0.6,0,1,0.4,1,1v9.7
		C39.2,30.4,38.7,30.8,38.2,30.8z"/>
	<path class="st2" d="M17.8,14.8c0,0,2.2,1,7.2,1s7.2-1,7.2-1"/>
	<path class="st2" d="M17.8,35.2c0,0,2.2-1,7.2-1s7.2,1,7.2,1"/>
	<g>
		<polygon class="st3" points="18.2,27.4 17.1,23.5 16.1,27.4 15.1,27.4 13.5,22.6 14.5,22.6 15.6,26.6 16.6,22.6 17.6,22.6 
			18.6,26.6 19.8,22.6 20.7,22.6 19.2,27.4 		"/>
		<polygon class="st3" points="26,27.4 24.9,23.5 23.9,27.4 22.8,27.4 21.3,22.6 22.2,22.6 23.4,26.6 24.4,22.6 25.4,22.6 
			26.4,26.6 27.6,22.6 28.5,22.6 27,27.4 		"/>
		<polygon class="st3" points="33.7,27.4 32.7,23.5 31.6,27.4 30.6,27.4 29.1,22.6 30,22.6 31.1,26.6 32.2,22.6 33.2,22.6 
			34.2,26.6 35.4,22.6 36.3,22.6 34.7,27.4 		"/>
	</g>
</g>
</svg>
