<?xml version="1.0" encoding="utf-8"?>
<!-- Generator: Adobe Illustrator 21.0.0, SVG Export Plug-In . SVG Version: 6.00 Build 0)  -->
<svg version="1.1" id="Слой_1" xmlns="http://www.w3.org/2000/svg" xmlns:xlink="http://www.w3.org/1999/xlink" x="0px" y="0px"
	 viewBox="0 0 367.8 66" style="enable-background:new 0 0 367.8 66;" xml:space="preserve">
<style type="text/css">
	.st0{fill:#3343E1;}
</style>
<path d="M116.6,21.9h-11.4v28.8h-8.1V21.9H85.8v-6.7h30.8L116.6,21.9z"/>
<path d="M146,23.4v27.3h-7.6v-3.1c-2,2.4-4.8,3.6-8.5,3.6c-2.6,0-4.9-0.6-7-1.7c-2.1-1.2-3.7-2.8-4.9-4.9s-1.8-4.6-1.8-7.4
	s0.6-5.3,1.8-7.4s2.8-3.8,4.9-4.9c2.1-1.2,4.4-1.7,7-1.7c3.5,0,6.2,1.1,8.2,3.3v-2.9h7.9L146,23.4z M136.2,42.6c1.3-1.4,2-3.2,2-5.5
	s-0.7-4.1-2-5.5s-3-2.1-5-2.1s-3.7,0.7-5,2.1c-1.3,1.4-2,3.2-2,5.5s0.7,4.1,2,5.5s3,2.1,5,2.1C133.2,44.6,134.9,43.9,136.2,42.6z"/>
<path d="M176.5,24.7c2.1,1.2,3.7,2.8,4.9,4.9s1.8,4.6,1.8,7.4s-0.6,5.3-1.8,7.4s-2.8,3.8-4.9,4.9s-4.4,1.8-6.9,1.8
	c-3.5,0-6.2-1.1-8.2-3.3v12.7h-7.9V23.4h7.6v3.1c2-2.4,4.8-3.6,8.6-3.6C172.1,23,174.4,23.6,176.5,24.7L176.5,24.7z M173.2,42.6
	c1.3-1.4,2-3.2,2-5.5s-0.7-4.1-2-5.5s-3-2.1-5-2.1s-3.7,0.7-5,2.1c-1.3,1.4-2,3.2-2,5.5s0.7,4.1,2,5.5s3,2.1,5,2.1
	C170.2,44.6,171.9,43.9,173.2,42.6z"/>
<path d="M188.7,23.4h7.9v16.2l13.2-16.2h7.3v27.3h-7.9V34.5l-13.3,16.2h-7.3L188.7,23.4z"/>
<path d="M258.2,47c-2.8,2.5-6.9,3.9-12.1,4.2v9.3h-7.3v-9.3c-5.2-0.4-9.3-1.8-12.1-4.2s-4.2-5.8-4.2-10.1c0-4.2,1.4-7.5,4.2-9.8
	s6.8-3.7,12.2-4.1V13h7.3v10c5.2,0.4,9.3,1.7,12.1,4.1s4.2,5.6,4.2,9.8C262.4,41.2,261,44.5,258.2,47z M232.2,42.6
	c1.4,1.3,3.6,2.1,6.6,2.5V29.2c-3,0.3-5.2,1.1-6.6,2.4s-2.1,3.1-2.1,5.4C230.2,39.4,230.8,41.3,232.2,42.6z M252.7,42.6
	c1.4-1.3,2.1-3.2,2.1-5.6c0-2.3-0.7-4.1-2.1-5.4s-3.6-2.1-6.6-2.4v15.9C249.1,44.7,251.3,43.9,252.7,42.6z"/>
<path d="M267.8,23.4h7.9v10.7h11.9V23.4h7.9v27.3h-7.9V40.5h-11.9v10.2h-7.9V23.4z"/>
<path d="M303.1,23.4h7.9v16.2l13.3-16.2h7.3v27.3h-7.9V34.5l-13.3,16.2h-7.3V23.4z"/>
<path d="M351.1,40.4H347v10.4h-7.9V23.4h7.9V34h4.3l7.4-10.6h8.4l-9.5,13.1l10.2,14.2h-9.3L351.1,40.4z"/>
<g>
	<path class="st0" d="M51.5,40.1l2.7,1.7L32,54.6L9.8,41.8L32,28.9l2.1,1.2l9.7-5.7L32,17.5L0,36.1v11.3L32,66l32-18.6V36.1
		l-2.7-1.6L51.5,40.1z"/>
	<path class="st0" d="M32,0L0,18.6v11.3l2.8,1.6l9.8-5.7l-2.8-1.6L32,11.3l22.2,12.9L32,37.1l-4.5-2.6l-9.8,5.6L32,48.5l32-18.6
		V18.6L32,0z"/>
</g>
</svg>
