<svg width="16" height="16" viewBox="0 0 16 16" fill="none" xmlns="http://www.w3.org/2000/svg">
<path d="M15.5355 13.0706C15.5355 13.785 14.8212 14.5787 13.6306 15.0549C12.4401 15.5311 8.63027 16.6423 4.02675 12.1182L3.94738 12.0388C-0.576768 7.43528 0.613797 3.5461 1.01065 2.4349C1.40751 1.32371 2.28059 0.529999 2.99493 0.529999C4.26486 0.529999 5.93166 1.95868 6.40788 3.06987C6.64599 3.5461 6.64599 4.18107 6.24914 4.57792C6.0904 4.73666 5.77291 4.89541 5.5348 5.13352C5.05857 5.451 4.50298 5.76849 4.50298 6.32408C4.50298 6.87968 4.9792 7.9115 6.16977 9.10207L7.04285 9.89578C8.23341 11.0863 9.18587 11.6419 9.82084 11.5626C10.4558 11.4832 10.6939 11.007 11.0114 10.5307C11.1701 10.2926 11.3289 10.0545 11.567 9.81641C11.8051 9.5783 12.202 9.34018 13.075 9.65767C14.1862 10.1339 15.5355 11.8007 15.5355 13.0706Z" fill="white"/>
</svg>
